<svg xmlns="http://www.w3.org/2000/svg" width="1100" height="620" viewBox="0 0 1100 620">
<defs><marker id="a" markerWidth="10" markerHeight="10" refX="8" refY="3" orient="auto"><path d="M0,0 L0,6 L9,3 z" fill="#00e5ff"/></marker></defs>
<rect width="1100" height="620" fill="#05080f"/><text x="60" y="70" fill="#fff" font-size="34" font-family="Arial" font-weight="900">AI Architecture</text>
<text x="60" y="105" fill="#8ba3c7" font-size="22" font-family="Arial">Game utama mengatur UI, AI Worker menghitung langkah terbaik di background.</text>
<g font-family="Arial">
<rect x="80" y="180" width="260" height="170" rx="20" fill="rgba(255,255,255,.04)" stroke="rgba(0,229,255,.45)" stroke-width="2"/><text x="110" y="225" fill="#00e5ff" font-size="28" font-weight="700">ai_game.html</text><text x="110" y="265" fill="#8ba3c7" font-size="20">• Render papan</text><text x="110" y="295" fill="#8ba3c7" font-size="20">• Input pemain</text><text x="110" y="325" fill="#8ba3c7" font-size="20">• Skor, undo, history</text>
<rect x="430" y="180" width="260" height="170" rx="20" fill="rgba(255,255,255,.04)" stroke="rgba(0,229,255,.45)" stroke-width="2"/><text x="460" y="225" fill="#00e5ff" font-size="28" font-weight="700">postMessage()</text><text x="460" y="265" fill="#8ba3c7" font-size="20">board</text><text x="460" y="295" fill="#8ba3c7" font-size="20">playerColor</text><text x="460" y="325" fill="#8ba3c7" font-size="20">turn + maxDepth</text>
<rect x="780" y="180" width="260" height="170" rx="20" fill="rgba(255,255,255,.04)" stroke="rgba(0,229,255,.45)" stroke-width="2"/><text x="810" y="225" fill="#00e5ff" font-size="28" font-weight="700">ai_worker.js</text><text x="810" y="265" fill="#8ba3c7" font-size="20">• Panic button</text><text x="810" y="295" fill="#8ba3c7" font-size="20">• Minimax + pruning</text><text x="810" y="325" fill="#8ba3c7" font-size="20">• Evaluasi posisi</text>
<path d="M350 265H420" stroke="#00e5ff" stroke-width="3" marker-end="url(#a)"/><path d="M700 265H770" stroke="#00e5ff" stroke-width="3" marker-end="url(#a)"/><path d="M910 370C910 455 210 455 210 370" stroke="#00e5ff" stroke-width="3" fill="none" marker-end="url(#a)"/>
<text x="410" y="500" fill="#fff" font-size="24" font-weight="700">bestMove dikirim balik</text><text x="410" y="530" fill="#8ba3c7" font-size="20">Game utama meletakkan bidak AI ke papan.</text></g></svg>