<svg xmlns="http://www.w3.org/2000/svg" width="1200" height="620" viewBox="0 0 1200 620">
<defs><linearGradient id="g" x1="0" x2="1"><stop offset="0" stop-color="#05080f"/><stop offset="1" stop-color="#0b1425"/></linearGradient></defs>
<rect width="1200" height="620" fill="url(#g)"/>
<rect x="70" y="60" width="1060" height="500" rx="30" fill="rgba(12,18,30,.78)" stroke="#00e5ff" stroke-opacity=".35" stroke-width="2"/>
<text x="110" y="125" font-family="Arial" font-size="22" fill="#00e5ff" letter-spacing="5">SYSTEM ONLINE</text>
<text x="110" y="295" font-family="Arial" font-size="94" font-weight="900" fill="#ffffff">MIGOYUGO</text>
<text x="115" y="350" font-family="Arial" font-size="32" fill="#8ba3c7">Abstract Strategy Game with AI</text>
<text x="135" y="423" font-family="Arial" font-size="27" fill="#8ba3c7">— Play Local</text>
<text x="135" y="470" font-family="Arial" font-size="27" fill="#ffffff">— Play Against AI</text>
<text x="135" y="517" font-family="Arial" font-size="27" fill="#8ba3c7">— How to Play</text>
<g transform="translate(790,170)">
<text x="0" y="-25" font-family="Arial" font-size="24" fill="#00e5ff">8 × 8 FIELD</text>
<rect width="256" height="256" fill="#07101f" stroke="#00e5ff"/>
<rect x="0" y="0" width="32" height="32" fill="rgba(255,255,255,0.04)" stroke="rgba(0,229,255,.14)"/>
<rect x="32" y="0" width="32" height="32" fill="rgba(255,255,255,0.08)" stroke="rgba(0,229,255,.14)"/>
<rect x="64" y="0" width="32" height="32" fill="rgba(255,255,255,0.04)" stroke="rgba(0,229,255,.14)"/>
<rect x="96" y="0" width="32" height="32" fill="rgba(255,255,255,0.08)" stroke="rgba(0,229,255,.14)"/>
<rect x="128" y="0" width="32" height="32" fill="rgba(255,255,255,0.04)" stroke="rgba(0,229,255,.14)"/>
<rect x="160" y="0" width="32" height="32" fill="rgba(255,255,255,0.08)" stroke="rgba(0,229,255,.14)"/>
<rect x="192" y="0" width="32" height="32" fill="rgba(255,255,255,0.04)" stroke="rgba(0,229,255,.14)"/>
<rect x="224" y="0" width="32" height="32" fill="rgba(255,255,255,0.08)" stroke="rgba(0,229,255,.14)"/>
<rect x="0" y="32" width="32" height="32" fill="rgba(255,255,255,0.08)" stroke="rgba(0,229,255,.14)"/>
<rect x="32" y="32" width="32" height="32" fill="rgba(255,255,255,0.04)" stroke="rgba(0,229,255,.14)"/>
<rect x="64" y="32" width="32" height="32" fill="rgba(255,255,255,0.08)" stroke="rgba(0,229,255,.14)"/>
<rect x="96" y="32" width="32" height="32" fill="rgba(255,255,255,0.04)" stroke="rgba(0,229,255,.14)"/>
<rect x="128" y="32" width="32" height="32" fill="rgba(255,255,255,0.08)" stroke="rgba(0,229,255,.14)"/>
<rect x="160" y="32" width="32" height="32" fill="rgba(255,255,255,0.04)" stroke="rgba(0,229,255,.14)"/>
<rect x="192" y="32" width="32" height="32" fill="rgba(255,255,255,0.08)" stroke="rgba(0,229,255,.14)"/>
<rect x="224" y="32" width="32" height="32" fill="rgba(255,255,255,0.04)" stroke="rgba(0,229,255,.14)"/>
<rect x="0" y="64" width="32" height="32" fill="rgba(255,255,255,0.04)" stroke="rgba(0,229,255,.14)"/>
<rect x="32" y="64" width="32" height="32" fill="rgba(255,255,255,0.08)" stroke="rgba(0,229,255,.14)"/>
<rect x="64" y="64" width="32" height="32" fill="rgba(255,255,255,0.04)" stroke="rgba(0,229,255,.14)"/>
<rect x="96" y="64" width="32" height="32" fill="rgba(255,255,255,0.08)" stroke="rgba(0,229,255,.14)"/>
<rect x="128" y="64" width="32" height="32" fill="rgba(255,255,255,0.04)" stroke="rgba(0,229,255,.14)"/>
<rect x="160" y="64" width="32" height="32" fill="rgba(255,255,255,0.08)" stroke="rgba(0,229,255,.14)"/>
<rect x="192" y="64" width="32" height="32" fill="rgba(255,255,255,0.04)" stroke="rgba(0,229,255,.14)"/>
<rect x="224" y="64" width="32" height="32" fill="rgba(255,255,255,0.08)" stroke="rgba(0,229,255,.14)"/>
<rect x="0" y="96" width="32" height="32" fill="rgba(255,255,255,0.08)" stroke="rgba(0,229,255,.14)"/>
<rect x="32" y="96" width="32" height="32" fill="rgba(255,255,255,0.04)" stroke="rgba(0,229,255,.14)"/>
<rect x="64" y="96" width="32" height="32" fill="rgba(255,255,255,0.08)" stroke="rgba(0,229,255,.14)"/>
<rect x="96" y="96" width="32" height="32" fill="rgba(255,255,255,0.04)" stroke="rgba(0,229,255,.14)"/>
<rect x="128" y="96" width="32" height="32" fill="rgba(255,255,255,0.08)" stroke="rgba(0,229,255,.14)"/>
<rect x="160" y="96" width="32" height="32" fill="rgba(255,255,255,0.04)" stroke="rgba(0,229,255,.14)"/>
<rect x="192" y="96" width="32" height="32" fill="rgba(255,255,255,0.08)" stroke="rgba(0,229,255,.14)"/>
<rect x="224" y="96" width="32" height="32" fill="rgba(255,255,255,0.04)" stroke="rgba(0,229,255,.14)"/>
<rect x="0" y="128" width="32" height="32" fill="rgba(255,255,255,0.04)" stroke="rgba(0,229,255,.14)"/>
<rect x="32" y="128" width="32" height="32" fill="rgba(255,255,255,0.08)" stroke="rgba(0,229,255,.14)"/>
<rect x="64" y="128" width="32" height="32" fill="rgba(255,255,255,0.04)" stroke="rgba(0,229,255,.14)"/>
<rect x="96" y="128" width="32" height="32" fill="rgba(255,255,255,0.08)" stroke="rgba(0,229,255,.14)"/>
<rect x="128" y="128" width="32" height="32" fill="rgba(255,255,255,0.04)" stroke="rgba(0,229,255,.14)"/>
<rect x="160" y="128" width="32" height="32" fill="rgba(255,255,255,0.08)" stroke="rgba(0,229,255,.14)"/>
<rect x="192" y="128" width="32" height="32" fill="rgba(255,255,255,0.04)" stroke="rgba(0,229,255,.14)"/>
<rect x="224" y="128" width="32" height="32" fill="rgba(255,255,255,0.08)" stroke="rgba(0,229,255,.14)"/>
<rect x="0" y="160" width="32" height="32" fill="rgba(255,255,255,0.08)" stroke="rgba(0,229,255,.14)"/>
<rect x="32" y="160" width="32" height="32" fill="rgba(255,255,255,0.04)" stroke="rgba(0,229,255,.14)"/>
<rect x="64" y="160" width="32" height="32" fill="rgba(255,255,255,0.08)" stroke="rgba(0,229,255,.14)"/>
<rect x="96" y="160" width="32" height="32" fill="rgba(255,255,255,0.04)" stroke="rgba(0,229,255,.14)"/>
<rect x="128" y="160" width="32" height="32" fill="rgba(255,255,255,0.08)" stroke="rgba(0,229,255,.14)"/>
<rect x="160" y="160" width="32" height="32" fill="rgba(255,255,255,0.04)" stroke="rgba(0,229,255,.14)"/>
<rect x="192" y="160" width="32" height="32" fill="rgba(255,255,255,0.08)" stroke="rgba(0,229,255,.14)"/>
<rect x="224" y="160" width="32" height="32" fill="rgba(255,255,255,0.04)" stroke="rgba(0,229,255,.14)"/>
<rect x="0" y="192" width="32" height="32" fill="rgba(255,255,255,0.04)" stroke="rgba(0,229,255,.14)"/>
<rect x="32" y="192" width="32" height="32" fill="rgba(255,255,255,0.08)" stroke="rgba(0,229,255,.14)"/>
<rect x="64" y="192" width="32" height="32" fill="rgba(255,255,255,0.04)" stroke="rgba(0,229,255,.14)"/>
<rect x="96" y="192" width="32" height="32" fill="rgba(255,255,255,0.08)" stroke="rgba(0,229,255,.14)"/>
<rect x="128" y="192" width="32" height="32" fill="rgba(255,255,255,0.04)" stroke="rgba(0,229,255,.14)"/>
<rect x="160" y="192" width="32" height="32" fill="rgba(255,255,255,0.08)" stroke="rgba(0,229,255,.14)"/>
<rect x="192" y="192" width="32" height="32" fill="rgba(255,255,255,0.04)" stroke="rgba(0,229,255,.14)"/>
<rect x="224" y="192" width="32" height="32" fill="rgba(255,255,255,0.08)" stroke="rgba(0,229,255,.14)"/>
<rect x="0" y="224" width="32" height="32" fill="rgba(255,255,255,0.08)" stroke="rgba(0,229,255,.14)"/>
<rect x="32" y="224" width="32" height="32" fill="rgba(255,255,255,0.04)" stroke="rgba(0,229,255,.14)"/>
<rect x="64" y="224" width="32" height="32" fill="rgba(255,255,255,0.08)" stroke="rgba(0,229,255,.14)"/>
<rect x="96" y="224" width="32" height="32" fill="rgba(255,255,255,0.04)" stroke="rgba(0,229,255,.14)"/>
<rect x="128" y="224" width="32" height="32" fill="rgba(255,255,255,0.08)" stroke="rgba(0,229,255,.14)"/>
<rect x="160" y="224" width="32" height="32" fill="rgba(255,255,255,0.04)" stroke="rgba(0,229,255,.14)"/>
<rect x="192" y="224" width="32" height="32" fill="rgba(255,255,255,0.08)" stroke="rgba(0,229,255,.14)"/>
<rect x="224" y="224" width="32" height="32" fill="rgba(255,255,255,0.04)" stroke="rgba(0,229,255,.14)"/>
<circle cx="64" cy="112" r="12" fill="#fff"/><circle cx="96" cy="112" r="12" fill="#fff"/><circle cx="128" cy="112" r="12" fill="#fff"/>
<circle cx="160" cy="112" r="12" fill="#0a101d" stroke="#00e5ff" stroke-width="3"/><circle cx="160" cy="112" r="4" fill="#00e5ff"/>
</g></svg>